<svg width="17" height="18" viewBox="0 0 17 18" fill="none" xmlns="http://www.w3.org/2000/svg">
<path d="M4.94737 1V3.36842M11.2632 1V3.36842" stroke="#00A0B1" stroke-width="1.5" stroke-miterlimit="10" stroke-linecap="round" stroke-linejoin="round"/>
<path d="M16 16.7895L15.2105 16M13 16.3158C13.67 16.3158 14.3126 16.0496 14.7864 15.5759C15.2601 15.1021 15.5263 14.4595 15.5263 13.7895C15.5263 13.1195 15.2601 12.4769 14.7864 12.0031C14.3126 11.5293 13.67 11.2632 13 11.2632C12.33 11.2632 11.6874 11.5293 11.2136 12.0031C10.7398 12.4769 10.4737 13.1195 10.4737 13.7895C10.4737 14.4595 10.7398 15.1021 11.2136 15.5759C11.6874 16.0496 12.33 16.3158 13 16.3158Z" stroke="#00A0B1" stroke-width="1.5" stroke-linecap="round" stroke-linejoin="round"/>
<path d="M1.39474 6.59737H14.8158M9.18684 16.7895H4.94737C2.18421 16.7895 1 15.2105 1 12.8421V6.13158C1 3.76316 2.18421 2.18421 4.94737 2.18421H11.2632C14.0263 2.18421 15.2105 3.76316 15.2105 6.13158V9.68421" stroke="#00A0B1" stroke-width="1.5" stroke-miterlimit="10" stroke-linecap="round" stroke-linejoin="round"/>
<path d="M8.10132 10.2368H8.10921M5.17947 10.2368H5.18737M5.17947 12.6053H5.18737" stroke="#00A0B1" stroke-width="2" stroke-linecap="round" stroke-linejoin="round"/>
</svg>
