<svg width="16" height="18" viewBox="0 0 16 18" fill="none" xmlns="http://www.w3.org/2000/svg">
<path d="M7.89986 10.1462C8.22772 10.1462 8.55237 10.0816 8.85527 9.95616C9.15817 9.83069 9.43339 9.64679 9.66522 9.41496C9.89705 9.18313 10.081 8.90791 10.2064 8.60501C10.3319 8.30211 10.3965 7.97746 10.3965 7.6496C10.3965 7.32174 10.3319 6.99709 10.2064 6.69419C10.081 6.39129 9.89705 6.11607 9.66522 5.88424C9.43339 5.65241 9.15817 5.46851 8.85527 5.34304C8.55237 5.21758 8.22772 5.153 7.89986 5.153C7.23772 5.153 6.6027 5.41603 6.1345 5.88424C5.66629 6.35244 5.40326 6.98746 5.40326 7.6496C5.40326 8.31174 5.66629 8.94676 6.1345 9.41496C6.6027 9.88317 7.23772 10.1462 7.89986 10.1462Z" stroke="#00A0B1" stroke-width="1.5"/>
<path d="M1.19425 6.19325C2.77063 -0.736416 13.0371 -0.728413 14.6055 6.20125C15.5257 10.2662 12.9971 13.7071 10.7806 15.8356C10.006 16.5826 8.97192 17 7.89586 17C6.8198 17 5.7857 16.5826 5.01117 15.8356C2.80264 13.7071 0.27403 10.2582 1.19425 6.19325Z" stroke="#00A0B1" stroke-width="1.5"/>
</svg>
