<svg width="26" height="30" viewBox="0 0 26 30" fill="none" xmlns="http://www.w3.org/2000/svg">
<path d="M12.9386 18.0194C9.99976 18.0194 7.59909 15.6065 7.59909 12.6219C7.59909 9.63729 9.99976 7.2384 12.9386 7.2384C15.8773 7.2384 18.278 9.65123 18.278 12.6358C18.278 15.6205 15.8773 18.0194 12.9386 18.0194ZM12.9386 9.33045C11.145 9.33045 9.66863 10.8088 9.66863 12.6358C9.66863 14.4629 11.1312 15.9413 12.9386 15.9413C14.746 15.9413 16.2084 14.4629 16.2084 12.6358C16.2084 10.8088 14.7322 9.33045 12.9386 9.33045Z" fill="#292D32"/>
<path d="M12.9369 30C10.895 30 8.83921 29.219 7.23877 27.6709C3.16866 23.7099 -1.32914 17.3919 0.367883 9.87448C1.89935 3.05439 7.79064 0 12.9369 0H12.9507C18.097 0 23.9883 3.05439 25.5197 9.88842C27.203 17.4059 22.7052 23.7099 18.6351 27.6709C17.0346 29.219 14.9789 30 12.9369 30ZM12.9369 2.09205C8.92199 2.09205 3.76193 4.25384 2.39604 10.3347C0.905965 16.9038 4.98986 22.5662 8.68745 26.1506C11.0743 28.4798 14.8133 28.4798 17.2002 26.1506C20.884 22.5662 24.9679 16.9038 23.5054 10.3347C22.1257 4.25384 16.9518 2.09205 12.9369 2.09205Z" fill="#292D32"/>
</svg>
